<svg data-v-423bf9ae="" xmlns="http://www.w3.org/2000/svg" viewBox="100 0 498 245" width="200" height="50">
    <g data-v-423bf9ae="" id="87c7d28a-9ff3-40df-8007-30c8f5d8f8a2" fill="white" transform="matrix(5.917159557342529,0,0,5.917159557342529,209.14967346191406,73.72116088867188)">
        <path d="M7.31 7.39L7.31 3.35L8.67 3.35L8.67 13.05L7.31 13.05L7.31 8.57L2.56 8.57L2.56 13.05L1.20 13.05L1.20 3.35L2.56 3.35L2.56 7.39L7.31 7.39ZM10.68 8.19L10.68 8.19L10.68 8.19Q10.68 6.94 11.05 5.99L11.05 5.99L11.05 5.99Q11.42 5.04 12.06 4.40L12.06 4.40L12.06 4.40Q12.70 3.77 13.55 3.44L13.55 3.44L13.55 3.44Q14.39 3.12 15.34 3.12L15.34 3.12L15.34 3.12Q16.28 3.12 17.12 3.44L17.12 3.44L17.12 3.44Q17.95 3.77 18.58 4.40L18.58 4.40L18.58 4.40Q19.21 5.04 19.58 5.99L19.58 5.99L19.58 5.99Q19.95 6.94 19.95 8.19L19.95 8.19L19.95 8.19Q19.95 9.44 19.58 10.39L19.58 10.39L19.58 10.39Q19.21 11.34 18.58 11.98L18.58 11.98L18.58 11.98Q17.95 12.61 17.12 12.94L17.12 12.94L17.12 12.94Q16.28 13.26 15.34 13.26L15.34 13.26L15.34 13.26Q14.39 13.26 13.55 12.94L13.55 12.94L13.55 12.94Q12.70 12.61 12.06 11.98L12.06 11.98L12.06 11.98Q11.42 11.34 11.05 10.39L11.05 10.39L11.05 10.39Q10.68 9.44 10.68 8.19ZM12.11 8.19L12.11 8.19L12.11 8.19Q12.11 9.07 12.33 9.79L12.33 9.79L12.33 9.79Q12.56 10.51 12.97 11.02L12.97 11.02L12.97 11.02Q13.38 11.52 13.98 11.79L13.98 11.79L13.98 11.79Q14.57 12.07 15.32 12.07L15.32 12.07L15.32 12.07Q16.06 12.07 16.65 11.79L16.65 11.79L16.65 11.79Q17.23 11.52 17.65 11.02L17.65 11.02L17.65 11.02Q18.06 10.51 18.28 9.79L18.28 9.79L18.28 9.79Q18.51 9.07 18.51 8.19L18.51 8.19L18.51 8.19Q18.51 7.31 18.28 6.59L18.28 6.59L18.28 6.59Q18.06 5.87 17.65 5.36L17.65 5.36L17.65 5.36Q17.23 4.86 16.65 4.58L16.65 4.58L16.65 4.58Q16.06 4.31 15.32 4.31L15.32 4.31L15.32 4.31Q14.57 4.31 13.98 4.58L13.98 4.58L13.98 4.58Q13.38 4.86 12.97 5.36L12.97 5.36L12.97 5.36Q12.56 5.87 12.33 6.59L12.33 6.59L12.33 6.59Q12.11 7.31 12.11 8.19ZM28.13 3.35L28.13 4.42L28.13 4.42Q27.80 4.79 27.38 5.30L27.38 5.30L27.38 5.30Q26.95 5.81 26.47 6.43L26.47 6.43L26.47 6.43Q26.00 7.06 25.49 7.75L25.49 7.75L25.49 7.75Q24.99 8.44 24.51 9.15L24.51 9.15L24.51 9.15Q24.02 9.86 23.59 10.56L23.59 10.56L23.59 10.56Q23.16 11.26 22.81 11.89L22.81 11.89L28.27 11.89L28.27 13.05L21.22 13.05L21.22 12.14L21.22 12.14Q21.52 11.58 21.92 10.91L21.92 10.91L21.92 10.91Q22.32 10.23 22.77 9.53L22.77 9.53L22.77 9.53Q23.23 8.83 23.72 8.12L23.72 8.12L23.72 8.12Q24.21 7.41 24.69 6.75L24.69 6.75L24.69 6.75Q25.17 6.09 25.63 5.52L25.63 5.52L25.63 5.52Q26.08 4.94 26.46 4.51L26.46 4.51L21.48 4.51L21.48 3.35L28.13 3.35ZM29.60 8.19L29.60 8.19L29.60 8.19Q29.60 6.94 29.97 5.99L29.97 5.99L29.97 5.99Q30.34 5.04 30.97 4.40L30.97 4.40L30.97 4.40Q31.61 3.77 32.46 3.44L32.46 3.44L32.46 3.44Q33.31 3.12 34.26 3.12L34.26 3.12L34.26 3.12Q35.20 3.12 36.03 3.44L36.03 3.44L36.03 3.44Q36.86 3.77 37.49 4.40L37.49 4.40L37.49 4.40Q38.12 5.04 38.49 5.99L38.49 5.99L38.49 5.99Q38.86 6.94 38.86 8.19L38.86 8.19L38.86 8.19Q38.86 9.44 38.49 10.39L38.49 10.39L38.49 10.39Q38.12 11.34 37.49 11.98L37.49 11.98L37.49 11.98Q36.86 12.61 36.03 12.94L36.03 12.94L36.03 12.94Q35.20 13.26 34.26 13.26L34.26 13.26L34.26 13.26Q33.31 13.26 32.46 12.94L32.46 12.94L32.46 12.94Q31.61 12.61 30.97 11.98L30.97 11.98L30.97 11.98Q30.34 11.34 29.97 10.39L29.97 10.39L29.97 10.39Q29.60 9.44 29.60 8.19ZM31.02 8.19L31.02 8.19L31.02 8.19Q31.02 9.07 31.25 9.79L31.25 9.79L31.25 9.79Q31.47 10.51 31.88 11.02L31.88 11.02L31.88 11.02Q32.30 11.52 32.89 11.79L32.89 11.79L32.89 11.79Q33.49 12.07 34.23 12.07L34.23 12.07L34.23 12.07Q34.97 12.07 35.56 11.79L35.56 11.79L35.56 11.79Q36.15 11.52 36.56 11.02L36.56 11.02L36.56 11.02Q36.97 10.51 37.20 9.79L37.20 9.79L37.20 9.79Q37.42 9.07 37.42 8.19L37.42 8.19L37.42 8.19Q37.42 7.31 37.20 6.59L37.20 6.59L37.20 6.59Q36.97 5.87 36.56 5.36L36.56 5.36L36.56 5.36Q36.15 4.86 35.56 4.58L35.56 4.58L35.56 4.58Q34.97 4.31 34.23 4.31L34.23 4.31L34.23 4.31Q33.49 4.31 32.89 4.58L32.89 4.58L32.89 4.58Q32.30 4.86 31.88 5.36L31.88 5.36L31.88 5.36Q31.47 5.87 31.25 6.59L31.25 6.59L31.25 6.59Q31.02 7.31 31.02 8.19ZM48.66 13.05L47.53 13.05L47.53 13.05Q47.22 12.53 46.82 11.89L46.82 11.89L46.82 11.89Q46.42 11.24 45.96 10.55L45.96 10.55L45.96 10.55Q45.50 9.86 45.00 9.14L45.00 9.14L45.00 9.14Q44.51 8.43 44.02 7.76L44.02 7.76L44.02 7.76Q43.53 7.10 43.06 6.51L43.06 6.51L43.06 6.51Q42.60 5.92 42.21 5.47L42.21 5.47L42.21 13.05L40.88 13.05L40.88 3.35L41.96 3.35L41.96 3.35Q42.62 4.05 43.37 4.98L43.37 4.98L43.37 4.98Q44.11 5.91 44.85 6.89L44.85 6.89L44.85 6.89Q45.58 7.88 46.23 8.83L46.23 8.83L46.23 8.83Q46.89 9.79 47.33 10.53L47.33 10.53L47.33 3.35L48.66 3.35L48.66 13.05Z"></path>
    </g>
</svg>
